<?xml version="1.0" encoding="utf-8"?>
<!-- Generator: Adobe Illustrator 19.0.0, SVG Export Plug-In . SVG Version: 6.00 Build 0)  -->
<svg version="1.1" id="Layer_1" xmlns="http://www.w3.org/2000/svg" xmlns:xlink="http://www.w3.org/1999/xlink" x="0px" y="0px"
	 viewBox="-288 411.9 18 18" style="enable-background:new -288 411.9 18 18;" xml:space="preserve">
<style type="text/css">
	.st0{fill:#FF5722;}
</style>
<path class="st0" d="M-279,412.7c-4.5,0-8.2,3.7-8.2,8.2c0,1.7,0.5,3.3,1.4,4.6l0,0l0,0c0.6,0.9,1.3,1.6,2.2,2.2l0,0l0,0
	c1.3,0.9,2.9,1.4,4.6,1.4c4.5,0,8.2-3.7,8.2-8.2C-270.8,416.4-274.5,412.7-279,412.7z M-284.2,420.9c0-2.8,2.3-5.2,5.2-5.2
	c0.9,0,1.6,0.2,2.4,0.6l-6.9,6.9C-283.9,422.5-284.2,421.7-284.2,420.9z M-279,426.1c-0.9,0-1.6-0.2-2.4-0.6l6.9-6.9
	c0.4,0.7,0.6,1.5,0.6,2.4C-273.8,423.7-276.2,426.1-279,426.1z"/>
</svg>
